<?xml version="1.0" standalone="no"?><!-- Generator: Gravit.io --><svg xmlns="http://www.w3.org/2000/svg" xmlns:xlink="http://www.w3.org/1999/xlink" style="isolation:isolate" viewBox="0 62.3 680.379 591.7" width="680.379" height="591.7"><g><g><path d=" M 300.213 281.463 C 297.446 273.964 295.215 266.205 293.567 258.235 L 368.427 258.235 L 368.427 235.512 L 290.523 235.512 C 290.308 232.085 290.198 228.63 290.198 225.15 C 290.198 220.82 290.368 216.529 290.7 212.283 L 368.427 212.283 L 368.427 189.56 L 294.106 189.56 C 295.887 181.581 298.255 173.823 301.161 166.332 L 359.307 166.332 L 359.307 143.609 L 312.081 143.609 C 340.272 95.012 392.87 62.3 453.049 62.3 C 542.928 62.3 615.899 135.27 615.899 225.15 C 615.899 315.029 542.928 388 453.049 388 C 391.842 388 338.477 354.161 310.657 304.186 L 364.455 304.186 L 364.455 281.463 L 300.213 281.463 Z " fill-rule="evenodd" fill="rgb(255,255,255)"/><path d=" M 368.972 144.782 C 340.951 95.539 287.992 62.3 227.331 62.3 C 137.451 62.3 64.48 135.27 64.48 225.15 L 64.48 225.15 C 64.48 315.029 137.451 388 227.331 388 C 287.992 388 340.951 354.761 368.972 305.518 L 368.972 144.782 Z  M 87.204 225.15 C 87.204 147.812 149.992 85.023 227.331 85.023 C 304.669 85.023 367.458 147.812 367.458 225.15 C 367.458 302.488 304.669 365.277 227.331 365.277 C 149.992 365.277 87.204 302.488 87.204 225.15 L 87.204 225.15 Z " fill-rule="evenodd" fill="rgb(255,255,255)"/></g><path d=" M 380.68 418.48 L 380.68 418.48 Q 380.68 418.18 380.89 417.97 L 380.89 417.97 L 380.89 417.97 Q 381.1 417.76 381.4 417.76 L 381.4 417.76 L 383.08 417.76 L 383.08 417.76 Q 383.38 417.76 383.59 417.97 L 383.59 417.97 L 383.59 417.97 Q 383.8 418.18 383.8 418.48 L 383.8 418.48 L 383.8 447.28 L 383.8 447.28 Q 383.8 447.58 383.59 447.79 L 383.59 447.79 L 383.59 447.79 Q 383.38 448 383.08 448 L 383.08 448 L 381.4 448 L 381.4 448 Q 381.1 448 380.89 447.79 L 380.89 447.79 L 380.89 447.79 Q 380.68 447.58 380.68 447.28 L 380.68 447.28 L 380.68 444.46 L 380.68 444.46 Q 380.68 444.28 380.56 444.25 L 380.56 444.25 L 380.56 444.25 Q 380.44 444.22 380.38 444.4 L 380.38 444.4 L 380.38 444.4 Q 379.12 446.38 376.99 447.4 L 376.99 447.4 L 376.99 447.4 Q 374.86 448.42 371.98 448.42 L 371.98 448.42 L 371.98 448.42 Q 367.54 448.42 364.6 445.78 L 364.6 445.78 L 364.6 445.78 Q 361.66 443.14 361.66 438.52 L 361.66 438.52 L 361.66 418.48 L 361.66 418.48 Q 361.66 418.18 361.87 417.97 L 361.87 417.97 L 361.87 417.97 Q 362.08 417.76 362.38 417.76 L 362.38 417.76 L 364.06 417.76 L 364.06 417.76 Q 364.36 417.76 364.57 417.97 L 364.57 417.97 L 364.57 417.97 Q 364.78 418.18 364.78 418.48 L 364.78 418.48 L 364.78 437.68 L 364.78 437.68 Q 364.78 441.28 366.91 443.44 L 366.91 443.44 L 366.91 443.44 Q 369.04 445.6 372.58 445.6 L 372.58 445.6 L 372.58 445.6 Q 376.24 445.6 378.46 443.41 L 378.46 443.41 L 378.46 443.41 Q 380.68 441.22 380.68 437.68 L 380.68 437.68 L 380.68 418.48 L 380.68 418.48 Z  M 406.18 417.34 L 406.18 417.34 Q 410.8 417.34 413.62 420.16 L 413.62 420.16 L 413.62 420.16 Q 416.44 422.98 416.44 427.6 L 416.44 427.6 L 416.44 447.28 L 416.44 447.28 Q 416.44 447.58 416.23 447.79 L 416.23 447.79 L 416.23 447.79 Q 416.02 448 415.72 448 L 415.72 448 L 413.98 448 L 413.98 448 Q 413.68 448 413.47 447.79 L 413.47 447.79 L 413.47 447.79 Q 413.26 447.58 413.26 447.28 L 413.26 447.28 L 413.26 428.2 L 413.26 428.2 Q 413.26 424.66 411.1 422.41 L 411.1 422.41 L 411.1 422.41 Q 408.94 420.16 405.52 420.16 L 405.52 420.16 L 405.52 420.16 Q 401.86 420.16 399.64 422.35 L 399.64 422.35 L 399.64 422.35 Q 397.42 424.54 397.42 428.08 L 397.42 428.08 L 397.42 447.28 L 397.42 447.28 Q 397.42 447.58 397.21 447.79 L 397.21 447.79 L 397.21 447.79 Q 397 448 396.7 448 L 396.7 448 L 394.96 448 L 394.96 448 Q 394.66 448 394.45 447.79 L 394.45 447.79 L 394.45 447.79 Q 394.24 447.58 394.24 447.28 L 394.24 447.28 L 394.24 418.48 L 394.24 418.48 Q 394.24 418.18 394.45 417.97 L 394.45 417.97 L 394.45 417.97 Q 394.66 417.76 394.96 417.76 L 394.96 417.76 L 396.7 417.76 L 396.7 417.76 Q 397 417.76 397.21 417.97 L 397.21 417.97 L 397.21 417.97 Q 397.42 418.18 397.42 418.48 L 397.42 418.48 L 397.42 421.3 L 397.42 421.3 Q 397.42 421.48 397.51 421.51 L 397.51 421.51 L 397.51 421.51 Q 397.6 421.54 397.66 421.42 L 397.66 421.42 L 397.66 421.42 Q 398.98 419.44 401.17 418.39 L 401.17 418.39 L 401.17 418.39 Q 403.36 417.34 406.18 417.34 L 406.18 417.34 L 406.18 417.34 Z  M 428.5 411.7 L 428.5 411.7 Q 427.3 411.7 426.52 410.95 L 426.52 410.95 L 426.52 410.95 Q 425.74 410.2 425.74 409.06 L 425.74 409.06 L 425.74 409.06 Q 425.74 407.92 426.52 407.2 L 426.52 407.2 L 426.52 407.2 Q 427.3 406.48 428.5 406.48 L 428.5 406.48 L 428.5 406.48 Q 429.7 406.48 430.48 407.2 L 430.48 407.2 L 430.48 407.2 Q 431.26 407.92 431.26 409.06 L 431.26 409.06 L 431.26 409.06 Q 431.26 410.2 430.48 410.95 L 430.48 410.95 L 430.48 410.95 Q 429.7 411.7 428.5 411.7 L 428.5 411.7 L 428.5 411.7 Z  M 427.66 448 L 427.66 448 Q 427.36 448 427.15 447.79 L 427.15 447.79 L 427.15 447.79 Q 426.94 447.58 426.94 447.28 L 426.94 447.28 L 426.94 418.48 L 426.94 418.48 Q 426.94 418.18 427.15 417.97 L 427.15 417.97 L 427.15 417.97 Q 427.36 417.76 427.66 417.76 L 427.66 417.76 L 429.4 417.76 L 429.4 417.76 Q 429.7 417.76 429.91 417.97 L 429.91 417.97 L 429.91 417.97 Q 430.12 418.18 430.12 418.48 L 430.12 418.48 L 430.12 447.28 L 430.12 447.28 Q 430.12 447.58 429.91 447.79 L 429.91 447.79 L 429.91 447.79 Q 429.7 448 429.4 448 L 429.4 448 L 427.66 448 L 427.66 448 Z  M 448.6 448 L 448.6 448 Q 448 448 447.82 447.4 L 447.82 447.4 L 437.98 418.6 L 437.98 418.6 Q 437.92 418.48 437.92 418.3 L 437.92 418.3 L 437.92 418.3 Q 437.92 417.76 438.52 417.76 L 438.52 417.76 L 440.56 417.76 L 440.56 417.76 Q 441.16 417.76 441.34 418.36 L 441.34 418.36 L 449.5 443.14 L 449.5 443.14 Q 449.56 443.26 449.68 443.26 L 449.68 443.26 L 449.68 443.26 Q 449.8 443.26 449.86 443.14 L 449.86 443.14 L 458.02 418.36 L 458.02 418.36 Q 458.2 417.76 458.8 417.76 L 458.8 417.76 L 460.84 417.82 L 460.84 417.82 Q 461.2 417.82 461.35 418.03 L 461.35 418.03 L 461.35 418.03 Q 461.5 418.24 461.38 418.66 L 461.38 418.66 L 451.54 447.4 L 451.54 447.4 Q 451.36 448 450.76 448 L 450.76 448 L 448.6 448 L 448.6 448 Z  M 479.92 445.72 L 479.92 445.72 Q 482.86 445.66 484.96 444.37 L 484.96 444.37 L 484.96 444.37 Q 487.06 443.08 488.08 440.8 L 488.08 440.8 L 488.08 440.8 Q 488.44 440.2 489.04 440.44 L 489.04 440.44 L 490.12 440.86 L 490.12 440.86 Q 490.84 441.16 490.54 441.82 L 490.54 441.82 L 490.54 441.82 Q 489.22 444.88 486.4 446.68 L 486.4 446.68 L 486.4 446.68 Q 483.58 448.48 479.68 448.48 L 479.68 448.48 L 479.68 448.48 Q 475.54 448.48 472.69 446.44 L 472.69 446.44 L 472.69 446.44 Q 469.84 444.4 468.7 440.86 L 468.7 440.86 L 468.7 440.86 Q 467.86 438.1 467.86 432.82 L 467.86 432.82 L 467.86 432.82 Q 467.86 429.88 467.95 428.38 L 467.95 428.38 L 467.95 428.38 Q 468.04 426.88 468.34 425.62 L 468.34 425.62 L 468.34 425.62 Q 469.3 421.84 472.27 419.56 L 472.27 419.56 L 472.27 419.56 Q 475.24 417.28 479.56 417.28 L 479.56 417.28 L 479.56 417.28 Q 484.36 417.28 487.3 419.8 L 487.3 419.8 L 487.3 419.8 Q 490.24 422.32 491.02 426.7 L 491.02 426.7 L 491.02 426.7 Q 491.26 427.9 491.35 429.19 L 491.35 429.19 L 491.35 429.19 Q 491.44 430.48 491.44 433.12 L 491.44 433.12 L 491.44 433.12 Q 491.44 433.9 490.72 433.9 L 490.72 433.9 L 471.22 433.9 L 471.22 433.9 Q 470.98 433.9 470.98 434.14 L 470.98 434.14 L 470.98 434.14 Q 470.98 437.92 471.28 439.3 L 471.28 439.3 L 471.28 439.3 Q 471.94 442.18 474.22 443.95 L 474.22 443.95 L 474.22 443.95 Q 476.5 445.72 479.92 445.72 L 479.92 445.72 L 479.92 445.72 Z  M 471.4 426.34 L 471.4 426.34 Q 471.1 427.48 470.98 431.08 L 470.98 431.08 L 470.98 431.08 Q 470.98 431.32 471.22 431.32 L 471.22 431.32 L 487.96 431.32 L 487.96 431.32 Q 488.2 431.32 488.2 431.08 L 488.2 431.08 L 488.2 431.08 Q 488.2 428.02 487.9 426.52 L 487.9 426.52 L 487.9 426.52 Q 487.24 423.64 485.02 421.87 L 485.02 421.87 L 485.02 421.87 Q 482.8 420.1 479.56 420.1 L 479.56 420.1 L 479.56 420.1 Q 476.32 420.1 474.16 421.81 L 474.16 421.81 L 474.16 421.81 Q 472 423.52 471.4 426.34 L 471.4 426.34 L 471.4 426.34 Z  M 512.08 417.52 L 512.08 417.52 Q 513.94 417.52 515.5 418.18 L 515.5 418.18 L 515.5 418.18 Q 516.04 418.42 515.86 419.08 L 515.86 419.08 L 515.38 420.82 L 515.38 420.82 Q 515.2 421.54 514.48 421.24 L 514.48 421.24 L 514.48 421.24 Q 513.16 420.82 511.6 420.88 L 511.6 420.88 L 511.6 420.88 Q 508.24 420.94 506.05 423.43 L 506.05 423.43 L 506.05 423.43 Q 503.86 425.92 503.86 429.52 L 503.86 429.52 L 503.86 447.28 L 503.86 447.28 Q 503.86 447.58 503.65 447.79 L 503.65 447.79 L 503.65 447.79 Q 503.44 448 503.14 448 L 503.14 448 L 501.4 448 L 501.4 448 Q 501.1 448 500.89 447.79 L 500.89 447.79 L 500.89 447.79 Q 500.68 447.58 500.68 447.28 L 500.68 447.28 L 500.68 418.48 L 500.68 418.48 Q 500.68 418.18 500.89 417.97 L 500.89 417.97 L 500.89 417.97 Q 501.1 417.76 501.4 417.76 L 501.4 417.76 L 503.14 417.76 L 503.14 417.76 Q 503.44 417.76 503.65 417.97 L 503.65 417.97 L 503.65 417.97 Q 503.86 418.18 503.86 418.48 L 503.86 418.48 L 503.86 422.44 L 503.86 422.44 Q 503.86 422.62 503.95 422.65 L 503.95 422.65 L 503.95 422.65 Q 504.04 422.68 504.1 422.5 L 504.1 422.5 L 504.1 422.5 Q 505.36 420.16 507.37 418.84 L 507.37 418.84 L 507.37 418.84 Q 509.38 417.52 512.08 417.52 L 512.08 417.52 L 512.08 417.52 Z  M 531.64 448.3 L 531.64 448.3 Q 528.4 448.3 525.91 447.25 L 525.91 447.25 L 525.91 447.25 Q 523.42 446.2 522.04 444.4 L 522.04 444.4 L 522.04 444.4 Q 520.66 442.6 520.66 440.44 L 520.66 440.44 L 520.66 439.78 L 520.66 439.78 Q 520.66 439.48 520.87 439.27 L 520.87 439.27 L 520.87 439.27 Q 521.08 439.06 521.38 439.06 L 521.38 439.06 L 523.06 439.06 L 523.06 439.06 Q 523.36 439.06 523.57 439.24 L 523.57 439.24 L 523.57 439.24 Q 523.78 439.42 523.78 439.66 L 523.78 439.66 L 523.78 440.32 L 523.78 440.32 Q 523.78 442.48 525.97 444.1 L 525.97 444.1 L 525.97 444.1 Q 528.16 445.72 531.58 445.72 L 531.58 445.72 L 531.58 445.72 Q 534.94 445.72 537.07 444.1 L 537.07 444.1 L 537.07 444.1 Q 539.2 442.48 539.2 440.08 L 539.2 440.08 L 539.2 440.08 Q 539.2 438.4 538.12 437.32 L 538.12 437.32 L 538.12 437.32 Q 537.04 436.24 535.54 435.67 L 535.54 435.67 L 535.54 435.67 Q 534.04 435.1 531.1 434.2 L 531.1 434.2 L 531.1 434.2 Q 527.74 433.18 525.7 432.28 L 525.7 432.28 L 525.7 432.28 Q 523.66 431.38 522.25 429.73 L 522.25 429.73 L 522.25 429.73 Q 520.84 428.08 520.84 425.56 L 520.84 425.56 L 520.84 425.56 Q 520.84 421.9 523.75 419.71 L 523.75 419.71 L 523.75 419.71 Q 526.66 417.52 531.4 417.52 L 531.4 417.52 L 531.4 417.52 Q 534.58 417.52 537.01 418.57 L 537.01 418.57 L 537.01 418.57 Q 539.44 419.62 540.79 421.42 L 540.79 421.42 L 540.79 421.42 Q 542.14 423.22 542.14 425.5 L 542.14 425.5 L 542.14 425.56 L 542.14 425.56 Q 542.14 425.86 541.93 426.07 L 541.93 426.07 L 541.93 426.07 Q 541.72 426.28 541.42 426.28 L 541.42 426.28 L 539.8 426.28 L 539.8 426.28 Q 539.5 426.28 539.29 426.16 L 539.29 426.16 L 539.29 426.16 Q 539.08 426.04 539.08 425.86 L 539.08 425.86 L 539.08 425.5 L 539.08 425.5 Q 539.08 423.22 536.95 421.69 L 536.95 421.69 L 536.95 421.69 Q 534.82 420.16 531.34 420.16 L 531.34 420.16 L 531.34 420.16 Q 527.98 420.16 525.94 421.57 L 525.94 421.57 L 525.94 421.57 Q 523.9 422.98 523.9 425.38 L 523.9 425.38 L 523.9 425.38 Q 523.9 427.66 525.79 428.8 L 525.79 428.8 L 525.79 428.8 Q 527.68 429.94 531.7 431.14 L 531.7 431.14 L 531.7 431.14 Q 535.24 432.16 537.31 433.03 L 537.31 433.03 L 537.31 433.03 Q 539.38 433.9 540.88 435.58 L 540.88 435.58 L 540.88 435.58 Q 542.38 437.26 542.38 439.9 L 542.38 439.9 L 542.38 439.9 Q 542.38 443.68 539.44 445.99 L 539.44 445.99 L 539.44 445.99 Q 536.5 448.3 531.64 448.3 L 531.64 448.3 L 531.64 448.3 Z  M 552.94 411.7 L 552.94 411.7 Q 551.74 411.7 550.96 410.95 L 550.96 410.95 L 550.96 410.95 Q 550.18 410.2 550.18 409.06 L 550.18 409.06 L 550.18 409.06 Q 550.18 407.92 550.96 407.2 L 550.96 407.2 L 550.96 407.2 Q 551.74 406.48 552.94 406.48 L 552.94 406.48 L 552.94 406.48 Q 554.14 406.48 554.92 407.2 L 554.92 407.2 L 554.92 407.2 Q 555.7 407.92 555.7 409.06 L 555.7 409.06 L 555.7 409.06 Q 555.7 410.2 554.92 410.95 L 554.92 410.95 L 554.92 410.95 Q 554.14 411.7 552.94 411.7 L 552.94 411.7 L 552.94 411.7 Z  M 552.1 448 L 552.1 448 Q 551.8 448 551.59 447.79 L 551.59 447.79 L 551.59 447.79 Q 551.38 447.58 551.38 447.28 L 551.38 447.28 L 551.38 418.48 L 551.38 418.48 Q 551.38 418.18 551.59 417.97 L 551.59 417.97 L 551.59 417.97 Q 551.8 417.76 552.1 417.76 L 552.1 417.76 L 553.84 417.76 L 553.84 417.76 Q 554.14 417.76 554.35 417.97 L 554.35 417.97 L 554.35 417.97 Q 554.56 418.18 554.56 418.48 L 554.56 418.48 L 554.56 447.28 L 554.56 447.28 Q 554.56 447.58 554.35 447.79 L 554.35 447.79 L 554.35 447.79 Q 554.14 448 553.84 448 L 553.84 448 L 552.1 448 L 552.1 448 Z  M 578.02 419.74 L 578.02 419.74 Q 578.02 420.04 577.81 420.25 L 577.81 420.25 L 577.81 420.25 Q 577.6 420.46 577.3 420.46 L 577.3 420.46 L 570.4 420.46 L 570.4 420.46 Q 570.16 420.46 570.16 420.7 L 570.16 420.7 L 570.16 439.6 L 570.16 439.6 Q 570.16 442.66 571.54 443.89 L 571.54 443.89 L 571.54 443.89 Q 572.92 445.12 575.98 445.12 L 575.98 445.12 L 577.24 445.12 L 577.24 445.12 Q 577.54 445.12 577.75 445.33 L 577.75 445.33 L 577.75 445.33 Q 577.96 445.54 577.96 445.84 L 577.96 445.84 L 577.96 447.22 L 577.96 447.22 Q 577.96 447.94 577.24 447.94 L 577.24 447.94 L 575.56 448 L 575.56 448 Q 571.42 448 569.26 446.38 L 569.26 446.38 L 569.26 446.38 Q 567.1 444.76 567.04 440.44 L 567.04 440.44 L 567.04 420.7 L 567.04 420.7 Q 567.04 420.46 566.8 420.46 L 566.8 420.46 L 563.32 420.46 L 563.32 420.46 Q 563.02 420.46 562.81 420.25 L 562.81 420.25 L 562.81 420.25 Q 562.6 420.04 562.6 419.74 L 562.6 419.74 L 562.6 418.48 L 562.6 418.48 Q 562.6 418.18 562.81 417.97 L 562.81 417.97 L 562.81 417.97 Q 563.02 417.76 563.32 417.76 L 563.32 417.76 L 566.8 417.76 L 566.8 417.76 Q 567.04 417.76 567.04 417.52 L 567.04 417.52 L 567.04 410.8 L 567.04 410.8 Q 567.04 410.5 567.25 410.29 L 567.25 410.29 L 567.25 410.29 Q 567.46 410.08 567.76 410.08 L 567.76 410.08 L 569.44 410.08 L 569.44 410.08 Q 569.74 410.08 569.95 410.29 L 569.95 410.29 L 569.95 410.29 Q 570.16 410.5 570.16 410.8 L 570.16 410.8 L 570.16 417.52 L 570.16 417.52 Q 570.16 417.76 570.4 417.76 L 570.4 417.76 L 577.3 417.76 L 577.3 417.76 Q 577.6 417.76 577.81 417.97 L 577.81 417.97 L 577.81 417.97 Q 578.02 418.18 578.02 418.48 L 578.02 418.48 L 578.02 419.74 L 578.02 419.74 Z  M 585.28 460 L 585.28 460 Q 585.1 460 584.98 459.79 L 584.98 459.79 L 584.98 459.79 Q 584.86 459.58 584.86 459.28 L 584.86 459.28 L 584.86 457.96 L 584.86 457.96 Q 584.86 457.66 584.98 457.45 L 584.98 457.45 L 584.98 457.45 Q 585.1 457.24 585.28 457.24 L 585.28 457.24 L 585.7 457.24 L 585.7 457.24 Q 587.98 457.18 589.27 456.49 L 589.27 456.49 L 589.27 456.49 Q 590.56 455.8 591.49 453.97 L 591.49 453.97 L 591.49 453.97 Q 592.42 452.14 593.68 448.18 L 593.68 448.18 L 593.68 448.18 Q 593.8 447.94 593.68 447.82 L 593.68 447.82 L 583.48 418.6 L 583.48 418.6 Q 583.42 418.48 583.42 418.3 L 583.42 418.3 L 583.42 418.3 Q 583.42 417.76 584.08 417.76 L 584.08 417.76 L 585.88 417.76 L 585.88 417.76 Q 586.48 417.76 586.66 418.36 L 586.66 418.36 L 595.18 443.38 L 595.18 443.38 Q 595.24 443.5 595.36 443.5 L 595.36 443.5 L 595.36 443.5 Q 595.48 443.5 595.54 443.38 L 595.54 443.38 L 603.76 418.36 L 603.76 418.36 Q 603.94 417.76 604.54 417.76 L 604.54 417.76 L 606.4 417.76 L 606.4 417.76 Q 606.76 417.76 606.94 417.97 L 606.94 417.97 L 606.94 417.97 Q 607.12 418.18 607 418.6 L 607 418.6 L 595.72 451.06 L 595.72 451.06 Q 594.34 454.96 593.14 456.82 L 593.14 456.82 L 593.14 456.82 Q 591.94 458.68 590.29 459.34 L 590.29 459.34 L 590.29 459.34 Q 588.64 460 585.7 460 L 585.7 460 L 585.28 460 L 585.28 460 Z  M 85.9 448.48 L 85.9 448.48 Q 81.64 448.48 78.67 446.26 L 78.67 446.26 L 78.67 446.26 Q 75.7 444.04 74.68 440.32 L 74.68 440.32 L 74.68 440.32 Q 73.9 437.44 73.9 432.82 L 73.9 432.82 L 73.9 432.82 Q 73.9 428.38 74.68 425.38 L 74.68 425.38 L 74.68 425.38 Q 75.64 421.72 78.64 419.5 L 78.64 419.5 L 78.64 419.5 Q 81.64 417.28 85.9 417.28 L 85.9 417.28 L 85.9 417.28 Q 90.16 417.28 93.25 419.44 L 93.25 419.44 L 93.25 419.44 Q 96.34 421.6 97.18 424.84 L 97.18 424.84 L 97.18 424.84 Q 97.42 425.56 97.54 426.4 L 97.54 426.4 L 97.54 426.52 L 97.54 426.52 Q 97.54 427.06 96.88 427.18 L 96.88 427.18 L 95.2 427.42 L 95.08 427.42 L 95.08 427.42 Q 94.54 427.42 94.36 426.76 L 94.36 426.76 L 94.36 426.76 Q 94.36 426.52 94.24 426.04 L 94.24 426.04 L 94.24 426.04 Q 93.7 423.52 91.42 421.81 L 91.42 421.81 L 91.42 421.81 Q 89.14 420.1 85.9 420.1 L 85.9 420.1 L 85.9 420.1 Q 82.6 420.1 80.41 421.84 L 80.41 421.84 L 80.41 421.84 Q 78.22 423.58 77.62 426.46 L 77.62 426.46 L 77.62 426.46 Q 77.08 428.74 77.08 432.88 L 77.08 432.88 L 77.08 432.88 Q 77.08 437.08 77.62 439.24 L 77.62 439.24 L 77.62 439.24 Q 78.22 442.18 80.41 443.92 L 80.41 443.92 L 80.41 443.92 Q 82.6 445.66 85.9 445.66 L 85.9 445.66 L 85.9 445.66 Q 89.14 445.66 91.45 443.95 L 91.45 443.95 L 91.45 443.95 Q 93.76 442.24 94.24 439.66 L 94.24 439.66 L 94.3 439.42 L 94.3 439.42 Q 94.36 439.12 94.6 438.97 L 94.6 438.97 L 94.6 438.97 Q 94.84 438.82 95.14 438.88 L 95.14 438.88 L 96.76 439.06 L 96.76 439.06 Q 97.06 439.12 97.27 439.33 L 97.27 439.33 L 97.27 439.33 Q 97.48 439.54 97.42 439.9 L 97.42 439.9 L 97.18 440.86 L 97.18 440.86 Q 96.34 444.22 93.25 446.35 L 93.25 446.35 L 93.25 446.35 Q 90.16 448.48 85.9 448.48 L 85.9 448.48 L 85.9 448.48 Z  M 115.9 417.28 L 115.9 417.28 Q 121.18 417.28 123.94 420.01 L 123.94 420.01 L 123.94 420.01 Q 126.7 422.74 126.7 427.36 L 126.7 427.36 L 126.7 447.28 L 126.7 447.28 Q 126.7 447.58 126.49 447.79 L 126.49 447.79 L 126.49 447.79 Q 126.28 448 125.98 448 L 125.98 448 L 124.24 448 L 124.24 448 Q 123.94 448 123.73 447.79 L 123.73 447.79 L 123.73 447.79 Q 123.52 447.58 123.52 447.28 L 123.52 447.28 L 123.52 444.7 L 123.52 444.7 Q 123.52 444.58 123.43 444.52 L 123.43 444.52 L 123.43 444.52 Q 123.34 444.46 123.22 444.58 L 123.22 444.58 L 123.22 444.58 Q 121.66 446.5 119.08 447.49 L 119.08 447.49 L 119.08 447.49 Q 116.5 448.48 113.56 448.48 L 113.56 448.48 L 113.56 448.48 Q 109.36 448.48 106.54 446.41 L 106.54 446.41 L 106.54 446.41 Q 103.72 444.34 103.72 439.96 L 103.72 439.96 L 103.72 439.96 Q 103.72 435.52 107.02 432.94 L 107.02 432.94 L 107.02 432.94 Q 110.32 430.36 116.08 430.36 L 116.08 430.36 L 123.28 430.36 L 123.28 430.36 Q 123.52 430.36 123.52 430.12 L 123.52 430.12 L 123.52 427.42 L 123.52 427.42 Q 123.52 424 121.66 422.05 L 121.66 422.05 L 121.66 422.05 Q 119.8 420.1 115.84 420.1 L 115.84 420.1 L 115.84 420.1 Q 112.78 420.1 110.8 421.33 L 110.8 421.33 L 110.8 421.33 Q 108.82 422.56 108.34 424.66 L 108.34 424.66 L 108.34 424.66 Q 108.16 425.38 107.5 425.26 L 107.5 425.26 L 105.64 425.02 L 105.64 425.02 Q 104.86 424.9 104.98 424.36 L 104.98 424.36 L 104.98 424.36 Q 105.58 421.18 108.52 419.23 L 108.52 419.23 L 108.52 419.23 Q 111.46 417.28 115.9 417.28 L 115.9 417.28 L 115.9 417.28 Z  M 114.16 445.72 L 114.16 445.72 Q 117.94 445.72 120.73 443.86 L 120.73 443.86 L 120.73 443.86 Q 123.52 442 123.52 438.7 L 123.52 438.7 L 123.52 433.24 L 123.52 433.24 Q 123.52 433 123.28 433 L 123.28 433 L 116.44 433 L 116.44 433 Q 112.12 433 109.51 434.8 L 109.51 434.8 L 109.51 434.8 Q 106.9 436.6 106.9 439.78 L 106.9 439.78 L 106.9 439.78 Q 106.9 442.72 108.94 444.22 L 108.94 444.22 L 108.94 444.22 Q 110.98 445.72 114.16 445.72 L 114.16 445.72 L 114.16 445.72 Z  M 166.24 417.34 L 166.24 417.34 Q 170.62 417.34 173.26 419.98 L 173.26 419.98 L 173.26 419.98 Q 175.9 422.62 175.9 427.24 L 175.9 427.24 L 175.9 447.28 L 175.9 447.28 Q 175.9 447.58 175.69 447.79 L 175.69 447.79 L 175.69 447.79 Q 175.48 448 175.18 448 L 175.18 448 L 173.5 448 L 173.5 448 Q 173.2 448 172.99 447.79 L 172.99 447.79 L 172.99 447.79 Q 172.78 447.58 172.78 447.28 L 172.78 447.28 L 172.78 427.84 L 172.78 427.84 Q 172.78 424.3 170.71 422.23 L 170.71 422.23 L 170.71 422.23 Q 168.64 420.16 165.34 420.16 L 165.34 420.16 L 165.34 420.16 Q 161.86 420.16 159.73 422.2 L 159.73 422.2 L 159.73 422.2 Q 157.6 424.24 157.6 427.72 L 157.6 427.72 L 157.6 447.28 L 157.6 447.28 Q 157.6 447.58 157.39 447.79 L 157.39 447.79 L 157.39 447.79 Q 157.18 448 156.88 448 L 156.88 448 L 155.2 448 L 155.2 448 Q 154.9 448 154.69 447.79 L 154.69 447.79 L 154.69 447.79 Q 154.48 447.58 154.48 447.28 L 154.48 447.28 L 154.48 427.84 L 154.48 427.84 Q 154.48 424.3 152.44 422.23 L 152.44 422.23 L 152.44 422.23 Q 150.4 420.16 147.1 420.16 L 147.1 420.16 L 147.1 420.16 Q 143.56 420.16 141.49 422.2 L 141.49 422.2 L 141.49 422.2 Q 139.42 424.24 139.42 427.72 L 139.42 427.72 L 139.42 447.28 L 139.42 447.28 Q 139.42 447.58 139.21 447.79 L 139.21 447.79 L 139.21 447.79 Q 139 448 138.7 448 L 138.7 448 L 136.96 448 L 136.96 448 Q 136.66 448 136.45 447.79 L 136.45 447.79 L 136.45 447.79 Q 136.24 447.58 136.24 447.28 L 136.24 447.28 L 136.24 418.48 L 136.24 418.48 Q 136.24 418.18 136.45 417.97 L 136.45 417.97 L 136.45 417.97 Q 136.66 417.76 136.96 417.76 L 136.96 417.76 L 138.7 417.76 L 138.7 417.76 Q 139 417.76 139.21 417.97 L 139.21 417.97 L 139.21 417.97 Q 139.42 418.18 139.42 418.48 L 139.42 418.48 L 139.42 421.06 L 139.42 421.06 Q 139.42 421.18 139.54 421.24 L 139.54 421.24 L 139.54 421.24 Q 139.66 421.3 139.72 421.18 L 139.72 421.18 L 139.72 421.18 Q 140.98 419.26 143.11 418.3 L 143.11 418.3 L 143.11 418.3 Q 145.24 417.34 147.94 417.34 L 147.94 417.34 L 147.94 417.34 Q 151.06 417.34 153.31 418.69 L 153.31 418.69 L 153.31 418.69 Q 155.56 420.04 156.7 422.5 L 156.7 422.5 L 156.7 422.5 Q 156.82 422.74 157 422.56 L 157 422.56 L 157 422.56 Q 158.26 419.98 160.66 418.66 L 160.66 418.66 L 160.66 418.66 Q 163.06 417.34 166.24 417.34 L 166.24 417.34 L 166.24 417.34 Z  M 208.24 425.38 L 208.24 425.38 Q 208.6 426.76 208.72 428.5 L 208.72 428.5 L 208.72 428.5 Q 208.84 430.24 208.84 432.94 L 208.84 432.94 L 208.84 432.94 Q 208.84 437.98 208.18 440.5 L 208.18 440.5 L 208.18 440.5 Q 207.16 444.16 204.34 446.32 L 204.34 446.32 L 204.34 446.32 Q 201.52 448.48 197.44 448.48 L 197.44 448.48 L 197.44 448.48 Q 194.8 448.48 192.73 447.4 L 192.73 447.4 L 192.73 447.4 Q 190.66 446.32 189.34 444.34 L 189.34 444.34 L 189.34 444.34 Q 189.22 444.22 189.13 444.25 L 189.13 444.25 L 189.13 444.25 Q 189.04 444.28 189.04 444.46 L 189.04 444.46 L 189.04 447.28 L 189.04 447.28 Q 189.04 447.58 188.83 447.79 L 188.83 447.79 L 188.83 447.79 Q 188.62 448 188.32 448 L 188.32 448 L 186.58 448 L 186.58 448 Q 186.28 448 186.07 447.79 L 186.07 447.79 L 186.07 447.79 Q 185.86 447.58 185.86 447.28 L 185.86 447.28 L 185.86 406.72 L 185.86 406.72 Q 185.86 406.42 186.07 406.21 L 186.07 406.21 L 186.07 406.21 Q 186.28 406 186.58 406 L 186.58 406 L 188.32 406 L 188.32 406 Q 188.62 406 188.83 406.21 L 188.83 406.21 L 188.83 406.21 Q 189.04 406.42 189.04 406.72 L 189.04 406.72 L 189.04 421.24 L 189.04 421.24 Q 189.04 421.36 189.16 421.42 L 189.16 421.42 L 189.16 421.42 Q 189.28 421.48 189.34 421.36 L 189.34 421.36 L 189.34 421.36 Q 190.66 419.38 192.73 418.33 L 192.73 418.33 L 192.73 418.33 Q 194.8 417.28 197.44 417.28 L 197.44 417.28 L 197.44 417.28 Q 201.58 417.28 204.43 419.47 L 204.43 419.47 L 204.43 419.47 Q 207.28 421.66 208.24 425.38 L 208.24 425.38 L 208.24 425.38 Z  M 204.88 440.02 L 204.88 440.02 Q 205.3 438.7 205.48 437.29 L 205.48 437.29 L 205.48 437.29 Q 205.66 435.88 205.66 432.88 L 205.66 432.88 L 205.66 432.88 Q 205.66 429.7 205.45 428.26 L 205.45 428.26 L 205.45 428.26 Q 205.24 426.82 204.7 425.56 L 204.7 425.56 L 204.7 425.56 Q 203.98 423.16 201.94 421.63 L 201.94 421.63 L 201.94 421.63 Q 199.9 420.1 197.08 420.1 L 197.08 420.1 L 197.08 420.1 Q 194.32 420.1 192.4 421.63 L 192.4 421.63 L 192.4 421.63 Q 190.48 423.16 189.88 425.62 L 189.88 425.62 L 189.88 425.62 Q 189.46 426.82 189.28 428.29 L 189.28 428.29 L 189.28 428.29 Q 189.1 429.76 189.1 432.94 L 189.1 432.94 L 189.1 432.94 Q 189.1 436 189.25 437.44 L 189.25 437.44 L 189.25 437.44 Q 189.4 438.88 189.82 440.02 L 189.82 440.02 L 189.82 440.02 Q 190.48 442.54 192.37 444.1 L 192.37 444.1 L 192.37 444.1 Q 194.26 445.66 197.08 445.66 L 197.08 445.66 L 197.08 445.66 Q 200.02 445.66 202.12 444.1 L 202.12 444.1 L 202.12 444.1 Q 204.22 442.54 204.88 440.02 L 204.88 440.02 L 204.88 440.02 Z  M 229.54 417.52 L 229.54 417.52 Q 231.4 417.52 232.96 418.18 L 232.96 418.18 L 232.96 418.18 Q 233.5 418.42 233.32 419.08 L 233.32 419.08 L 232.84 420.82 L 232.84 420.82 Q 232.66 421.54 231.94 421.24 L 231.94 421.24 L 231.94 421.24 Q 230.62 420.82 229.06 420.88 L 229.06 420.88 L 229.06 420.88 Q 225.7 420.94 223.51 423.43 L 223.51 423.43 L 223.51 423.43 Q 221.32 425.92 221.32 429.52 L 221.32 429.52 L 221.32 447.28 L 221.32 447.28 Q 221.32 447.58 221.11 447.79 L 221.11 447.79 L 221.11 447.79 Q 220.9 448 220.6 448 L 220.6 448 L 218.86 448 L 218.86 448 Q 218.56 448 218.35 447.79 L 218.35 447.79 L 218.35 447.79 Q 218.14 447.58 218.14 447.28 L 218.14 447.28 L 218.14 418.48 L 218.14 418.48 Q 218.14 418.18 218.35 417.97 L 218.35 417.97 L 218.35 417.97 Q 218.56 417.76 218.86 417.76 L 218.86 417.76 L 220.6 417.76 L 220.6 417.76 Q 220.9 417.76 221.11 417.97 L 221.11 417.97 L 221.11 417.97 Q 221.32 418.18 221.32 418.48 L 221.32 418.48 L 221.32 422.44 L 221.32 422.44 Q 221.32 422.62 221.41 422.65 L 221.41 422.65 L 221.41 422.65 Q 221.5 422.68 221.56 422.5 L 221.56 422.5 L 221.56 422.5 Q 222.82 420.16 224.83 418.84 L 224.83 418.84 L 224.83 418.84 Q 226.84 417.52 229.54 417.52 L 229.54 417.52 L 229.54 417.52 Z  M 241.72 411.7 L 241.72 411.7 Q 240.52 411.7 239.74 410.95 L 239.74 410.95 L 239.74 410.95 Q 238.96 410.2 238.96 409.06 L 238.96 409.06 L 238.96 409.06 Q 238.96 407.92 239.74 407.2 L 239.74 407.2 L 239.74 407.2 Q 240.52 406.48 241.72 406.48 L 241.72 406.48 L 241.72 406.48 Q 242.92 406.48 243.7 407.2 L 243.7 407.2 L 243.7 407.2 Q 244.48 407.92 244.48 409.06 L 244.48 409.06 L 244.48 409.06 Q 244.48 410.2 243.7 410.95 L 243.7 410.95 L 243.7 410.95 Q 242.92 411.7 241.72 411.7 L 241.72 411.7 L 241.72 411.7 Z  M 240.88 448 L 240.88 448 Q 240.58 448 240.37 447.79 L 240.37 447.79 L 240.37 447.79 Q 240.16 447.58 240.16 447.28 L 240.16 447.28 L 240.16 418.48 L 240.16 418.48 Q 240.16 418.18 240.37 417.97 L 240.37 417.97 L 240.37 417.97 Q 240.58 417.76 240.88 417.76 L 240.88 417.76 L 242.62 417.76 L 242.62 417.76 Q 242.92 417.76 243.13 417.97 L 243.13 417.97 L 243.13 417.97 Q 243.34 418.18 243.34 418.48 L 243.34 418.48 L 243.34 447.28 L 243.34 447.28 Q 243.34 447.58 243.13 447.79 L 243.13 447.79 L 243.13 447.79 Q 242.92 448 242.62 448 L 242.62 448 L 240.88 448 L 240.88 448 Z  M 272.86 406.72 L 272.86 406.72 Q 272.86 406.42 273.07 406.21 L 273.07 406.21 L 273.07 406.21 Q 273.28 406 273.58 406 L 273.58 406 L 275.32 406 L 275.32 406 Q 275.62 406 275.83 406.21 L 275.83 406.21 L 275.83 406.21 Q 276.04 406.42 276.04 406.72 L 276.04 406.72 L 276.04 447.28 L 276.04 447.28 Q 276.04 447.58 275.83 447.79 L 275.83 447.79 L 275.83 447.79 Q 275.62 448 275.32 448 L 275.32 448 L 273.58 448 L 273.58 448 Q 273.28 448 273.07 447.79 L 273.07 447.79 L 273.07 447.79 Q 272.86 447.58 272.86 447.28 L 272.86 447.28 L 272.86 444.46 L 272.86 444.46 Q 272.86 444.28 272.77 444.25 L 272.77 444.25 L 272.77 444.25 Q 272.68 444.22 272.56 444.34 L 272.56 444.34 L 272.56 444.34 Q 271.24 446.32 269.17 447.4 L 269.17 447.4 L 269.17 447.4 Q 267.1 448.48 264.46 448.48 L 264.46 448.48 L 264.46 448.48 Q 260.38 448.48 257.56 446.32 L 257.56 446.32 L 257.56 446.32 Q 254.74 444.16 253.72 440.5 L 253.72 440.5 L 253.72 440.5 Q 253.06 437.98 253.06 432.94 L 253.06 432.94 L 253.06 432.94 Q 253.06 430.24 253.18 428.5 L 253.18 428.5 L 253.18 428.5 Q 253.3 426.76 253.66 425.38 L 253.66 425.38 L 253.66 425.38 Q 254.62 421.66 257.47 419.47 L 257.47 419.47 L 257.47 419.47 Q 260.32 417.28 264.46 417.28 L 264.46 417.28 L 264.46 417.28 Q 267.1 417.28 269.17 418.33 L 269.17 418.33 L 269.17 418.33 Q 271.24 419.38 272.56 421.36 L 272.56 421.36 L 272.56 421.36 Q 272.62 421.48 272.74 421.42 L 272.74 421.42 L 272.74 421.42 Q 272.86 421.36 272.86 421.24 L 272.86 421.24 L 272.86 406.72 L 272.86 406.72 Z  M 272.08 440.02 L 272.08 440.02 Q 272.5 438.88 272.65 437.44 L 272.65 437.44 L 272.65 437.44 Q 272.8 436 272.8 432.94 L 272.8 432.94 L 272.8 432.94 Q 272.8 429.76 272.62 428.29 L 272.62 428.29 L 272.62 428.29 Q 272.44 426.82 272.02 425.62 L 272.02 425.62 L 272.02 425.62 Q 271.42 423.16 269.5 421.63 L 269.5 421.63 L 269.5 421.63 Q 267.58 420.1 264.82 420.1 L 264.82 420.1 L 264.82 420.1 Q 262 420.1 259.96 421.63 L 259.96 421.63 L 259.96 421.63 Q 257.92 423.16 257.2 425.56 L 257.2 425.56 L 257.2 425.56 Q 256.66 426.82 256.45 428.26 L 256.45 428.26 L 256.45 428.26 Q 256.24 429.7 256.24 432.88 L 256.24 432.88 L 256.24 432.88 Q 256.24 435.88 256.42 437.29 L 256.42 437.29 L 256.42 437.29 Q 256.6 438.7 257.02 440.02 L 257.02 440.02 L 257.02 440.02 Q 257.68 442.54 259.78 444.1 L 259.78 444.1 L 259.78 444.1 Q 261.88 445.66 264.82 445.66 L 264.82 445.66 L 264.82 445.66 Q 267.64 445.66 269.53 444.1 L 269.53 444.1 L 269.53 444.1 Q 271.42 442.54 272.08 440.02 L 272.08 440.02 L 272.08 440.02 Z  M 305.2 418.48 L 305.2 418.48 Q 305.2 418.18 305.41 417.97 L 305.41 417.97 L 305.41 417.97 Q 305.62 417.76 305.92 417.76 L 305.92 417.76 L 307.66 417.76 L 307.66 417.76 Q 307.96 417.76 308.17 417.97 L 308.17 417.97 L 308.17 417.97 Q 308.38 418.18 308.38 418.48 L 308.38 418.48 L 308.38 447.34 L 308.38 447.34 Q 308.38 454.12 304.33 457.18 L 304.33 457.18 L 304.33 457.18 Q 300.28 460.24 292.9 459.94 L 292.9 459.94 L 292.9 459.94 Q 292.18 459.88 292.18 459.16 L 292.18 459.16 L 292.24 457.66 L 292.24 457.66 Q 292.24 456.94 292.96 457 L 292.96 457 L 292.96 457 Q 299.32 457.18 302.26 454.81 L 302.26 454.81 L 302.26 454.81 Q 305.2 452.44 305.2 447.28 L 305.2 447.28 L 305.2 444.28 L 305.2 444.28 Q 305.2 444.1 305.11 444.07 L 305.11 444.07 L 305.11 444.07 Q 305.02 444.04 304.9 444.16 L 304.9 444.16 L 304.9 444.16 Q 302.2 448.3 296.68 448.3 L 296.68 448.3 L 296.68 448.3 Q 292.78 448.3 289.84 446.17 L 289.84 446.17 L 289.84 446.17 Q 286.9 444.04 285.94 440.32 L 285.94 440.32 L 285.94 440.32 Q 285.28 437.86 285.28 432.94 L 285.28 432.94 L 285.28 432.94 Q 285.28 427.66 286 425.2 L 286 425.2 L 286 425.2 Q 286.96 421.66 289.78 419.47 L 289.78 419.47 L 289.78 419.47 Q 292.6 417.28 296.56 417.28 L 296.56 417.28 L 296.56 417.28 Q 302.08 417.28 304.9 421.36 L 304.9 421.36 L 304.9 421.36 Q 304.96 421.48 305.08 421.42 L 305.08 421.42 L 305.08 421.42 Q 305.2 421.36 305.2 421.24 L 305.2 421.24 L 305.2 418.48 L 305.2 418.48 Z  M 304.9 439.18 L 304.9 439.18 Q 305.08 438.28 305.14 436.96 L 305.14 436.96 L 305.14 436.96 Q 305.2 435.64 305.2 432.88 L 305.2 432.88 L 305.2 432.88 Q 305.2 430.12 305.14 428.8 L 305.14 428.8 L 305.14 428.8 Q 305.08 427.48 304.9 426.46 L 304.9 426.46 L 304.9 426.46 Q 304.42 423.7 302.35 421.9 L 302.35 421.9 L 302.35 421.9 Q 300.28 420.1 297.16 420.1 L 297.16 420.1 L 297.16 420.1 Q 294.04 420.1 291.91 421.9 L 291.91 421.9 L 291.91 421.9 Q 289.78 423.7 289 426.46 L 289 426.46 L 289 426.46 Q 288.46 428.26 288.46 432.82 L 288.46 432.82 L 288.46 432.82 Q 288.46 437.26 289 439.18 L 289 439.18 L 289 439.18 Q 289.66 441.94 291.85 443.74 L 291.85 443.74 L 291.85 443.74 Q 294.04 445.54 297.16 445.54 L 297.16 445.54 L 297.16 445.54 Q 300.4 445.54 302.41 443.74 L 302.41 443.74 L 302.41 443.74 Q 304.42 441.94 304.9 439.18 L 304.9 439.18 L 304.9 439.18 Z  M 329.38 445.72 L 329.38 445.72 Q 332.32 445.66 334.42 444.37 L 334.42 444.37 L 334.42 444.37 Q 336.52 443.08 337.54 440.8 L 337.54 440.8 L 337.54 440.8 Q 337.9 440.2 338.5 440.44 L 338.5 440.44 L 339.58 440.86 L 339.58 440.86 Q 340.3 441.16 340 441.82 L 340 441.82 L 340 441.82 Q 338.68 444.88 335.86 446.68 L 335.86 446.68 L 335.86 446.68 Q 333.04 448.48 329.14 448.48 L 329.14 448.48 L 329.14 448.48 Q 325 448.48 322.15 446.44 L 322.15 446.44 L 322.15 446.44 Q 319.3 444.4 318.16 440.86 L 318.16 440.86 L 318.16 440.86 Q 317.32 438.1 317.32 432.82 L 317.32 432.82 L 317.32 432.82 Q 317.32 429.88 317.41 428.38 L 317.41 428.38 L 317.41 428.38 Q 317.5 426.88 317.8 425.62 L 317.8 425.62 L 317.8 425.62 Q 318.76 421.84 321.73 419.56 L 321.73 419.56 L 321.73 419.56 Q 324.7 417.28 329.02 417.28 L 329.02 417.28 L 329.02 417.28 Q 333.82 417.28 336.76 419.8 L 336.76 419.8 L 336.76 419.8 Q 339.7 422.32 340.48 426.7 L 340.48 426.7 L 340.48 426.7 Q 340.72 427.9 340.81 429.19 L 340.81 429.19 L 340.81 429.19 Q 340.9 430.48 340.9 433.12 L 340.9 433.12 L 340.9 433.12 Q 340.9 433.9 340.18 433.9 L 340.18 433.9 L 320.68 433.9 L 320.68 433.9 Q 320.44 433.9 320.44 434.14 L 320.44 434.14 L 320.44 434.14 Q 320.44 437.92 320.74 439.3 L 320.74 439.3 L 320.74 439.3 Q 321.4 442.18 323.68 443.95 L 323.68 443.95 L 323.68 443.95 Q 325.96 445.72 329.38 445.72 L 329.38 445.72 L 329.38 445.72 Z  M 320.86 426.34 L 320.86 426.34 Q 320.56 427.48 320.44 431.08 L 320.44 431.08 L 320.44 431.08 Q 320.44 431.32 320.68 431.32 L 320.68 431.32 L 337.42 431.32 L 337.42 431.32 Q 337.66 431.32 337.66 431.08 L 337.66 431.08 L 337.66 431.08 Q 337.66 428.02 337.36 426.52 L 337.36 426.52 L 337.36 426.52 Q 336.7 423.64 334.48 421.87 L 334.48 421.87 L 334.48 421.87 Q 332.26 420.1 329.02 420.1 L 329.02 420.1 L 329.02 420.1 Q 325.78 420.1 323.62 421.81 L 323.62 421.81 L 323.62 421.81 Q 321.46 423.52 320.86 426.34 L 320.86 426.34 L 320.86 426.34 Z " fill-rule="evenodd" fill="rgb(255,255,255)"/><path d=" M 361.59 576.2 L 361.59 576.2 Q 350.79 576.2 342.49 572.7 L 342.49 572.7 L 342.49 572.7 Q 334.19 569.2 329.59 563.2 L 329.59 563.2 L 329.59 563.2 Q 324.99 557.2 324.99 550 L 324.99 550 L 324.99 547.8 L 324.99 547.8 Q 324.99 546.8 325.69 546.1 L 325.69 546.1 L 325.69 546.1 Q 326.39 545.4 327.39 545.4 L 327.39 545.4 L 332.99 545.4 L 332.99 545.4 Q 333.99 545.4 334.69 546 L 334.69 546 L 334.69 546 Q 335.39 546.6 335.39 547.4 L 335.39 547.4 L 335.39 549.6 L 335.39 549.6 Q 335.39 556.8 342.69 562.2 L 342.69 562.2 L 342.69 562.2 Q 349.99 567.6 361.39 567.6 L 361.39 567.6 L 361.39 567.6 Q 372.59 567.6 379.69 562.2 L 379.69 562.2 L 379.69 562.2 Q 386.79 556.8 386.79 548.8 L 386.79 548.8 L 386.79 548.8 Q 386.79 543.2 383.19 539.6 L 383.19 539.6 L 383.19 539.6 Q 379.59 536 374.59 534.1 L 374.59 534.1 L 374.59 534.1 Q 369.59 532.2 359.79 529.2 L 359.79 529.2 L 359.79 529.2 Q 348.59 525.8 341.79 522.8 L 341.79 522.8 L 341.79 522.8 Q 334.99 519.8 330.29 514.3 L 330.29 514.3 L 330.29 514.3 Q 325.59 508.8 325.59 500.4 L 325.59 500.4 L 325.59 500.4 Q 325.59 488.2 335.29 480.9 L 335.29 480.9 L 335.29 480.9 Q 344.99 473.6 360.79 473.6 L 360.79 473.6 L 360.79 473.6 Q 371.39 473.6 379.49 477.1 L 379.49 477.1 L 379.49 477.1 Q 387.59 480.6 392.09 486.6 L 392.09 486.6 L 392.09 486.6 Q 396.59 492.6 396.59 500.2 L 396.59 500.2 L 396.59 500.4 L 396.59 500.4 Q 396.59 501.4 395.89 502.1 L 395.89 502.1 L 395.89 502.1 Q 395.19 502.8 394.19 502.8 L 394.19 502.8 L 388.79 502.8 L 388.79 502.8 Q 387.79 502.8 387.09 502.4 L 387.09 502.4 L 387.09 502.4 Q 386.39 502 386.39 501.4 L 386.39 501.4 L 386.39 500.2 L 386.39 500.2 Q 386.39 492.6 379.29 487.5 L 379.29 487.5 L 379.29 487.5 Q 372.19 482.4 360.59 482.4 L 360.59 482.4 L 360.59 482.4 Q 349.39 482.4 342.59 487.1 L 342.59 487.1 L 342.59 487.1 Q 335.79 491.8 335.79 499.8 L 335.79 499.8 L 335.79 499.8 Q 335.79 507.4 342.09 511.2 L 342.09 511.2 L 342.09 511.2 Q 348.39 515 361.79 519 L 361.79 519 L 361.79 519 Q 373.59 522.4 380.49 525.3 L 380.49 525.3 L 380.49 525.3 Q 387.39 528.2 392.39 533.8 L 392.39 533.8 L 392.39 533.8 Q 397.39 539.4 397.39 548.2 L 397.39 548.2 L 397.39 548.2 Q 397.39 560.8 387.59 568.5 L 387.59 568.5 L 387.59 568.5 Q 377.79 576.2 361.59 576.2 L 361.59 576.2 L 361.59 576.2 Z  M 462.39 576.8 L 462.39 576.8 Q 448.19 576.8 438.29 569.4 L 438.29 569.4 L 438.29 569.4 Q 428.39 562 424.79 549.6 L 424.79 549.6 L 424.79 549.6 Q 422.39 541.6 422.39 524.6 L 422.39 524.6 L 422.39 524.6 Q 422.39 508.6 424.59 499.8 L 424.59 499.8 L 424.59 499.8 Q 428.19 487.4 438.19 480.1 L 438.19 480.1 L 438.19 480.1 Q 448.19 472.8 462.39 472.8 L 462.39 472.8 L 462.39 472.8 Q 476.39 472.8 486.49 480.2 L 486.49 480.2 L 486.49 480.2 Q 496.59 487.6 499.99 499.8 L 499.99 499.8 L 499.99 499.8 Q 502.19 507.8 502.19 524.6 L 502.19 524.6 L 502.19 524.6 Q 502.19 541.6 499.99 549.6 L 499.99 549.6 L 499.99 549.6 Q 496.59 562 486.49 569.4 L 486.49 569.4 L 486.49 569.4 Q 476.39 576.8 462.39 576.8 L 462.39 576.8 L 462.39 576.8 Z  M 462.39 567.4 L 462.39 567.4 Q 472.99 567.4 480.49 561.6 L 480.49 561.6 L 480.49 561.6 Q 487.99 555.8 490.19 546 L 490.19 546 L 490.19 546 Q 491.39 540.4 491.39 524.8 L 491.39 524.8 L 491.39 524.8 Q 491.39 508.8 490.19 503.6 L 490.19 503.6 L 490.19 503.6 Q 487.99 493.8 480.49 488 L 480.49 488 L 480.49 488 Q 472.99 482.2 462.19 482.2 L 462.19 482.2 L 462.19 482.2 Q 451.39 482.2 443.99 488 L 443.99 488 L 443.99 488 Q 436.59 493.8 434.39 503.6 L 434.39 503.6 L 434.39 503.6 Q 433.19 508.8 433.19 524.8 L 433.19 524.8 L 433.19 524.8 Q 433.19 540.8 434.39 546 L 434.39 546 L 434.39 546 Q 436.59 555.8 443.99 561.6 L 443.99 561.6 L 443.99 561.6 Q 451.39 567.4 462.39 567.4 L 462.39 567.4 L 462.39 567.4 Z  M 570.19 576.8 L 570.19 576.8 Q 555.99 576.8 546.09 569.4 L 546.09 569.4 L 546.09 569.4 Q 536.19 562 532.79 549.6 L 532.79 549.6 L 532.79 549.6 Q 530.19 540 530.19 524.6 L 530.19 524.6 L 530.19 524.6 Q 530.19 509.8 532.79 499.8 L 532.79 499.8 L 532.79 499.8 Q 535.99 487.6 545.99 480.2 L 545.99 480.2 L 545.99 480.2 Q 555.99 472.8 570.19 472.8 L 570.19 472.8 L 570.19 472.8 Q 584.39 472.8 594.69 480 L 594.69 480 L 594.69 480 Q 604.99 487.2 607.79 498 L 607.79 498 L 607.79 498 Q 608.59 500.4 608.99 503.2 L 608.99 503.2 L 608.99 503.6 L 608.99 503.6 Q 608.99 505.4 606.79 505.8 L 606.79 505.8 L 601.19 506.6 L 600.79 506.6 L 600.79 506.6 Q 598.99 506.6 598.39 504.4 L 598.39 504.4 L 598.39 504.4 Q 598.39 503.6 597.99 502 L 597.99 502 L 597.99 502 Q 596.19 493.6 588.59 487.9 L 588.59 487.9 L 588.59 487.9 Q 580.99 482.2 570.19 482.2 L 570.19 482.2 L 570.19 482.2 Q 559.19 482.2 551.89 488 L 551.89 488 L 551.89 488 Q 544.59 493.8 542.59 503.4 L 542.59 503.4 L 542.59 503.4 Q 540.79 511 540.79 524.8 L 540.79 524.8 L 540.79 524.8 Q 540.79 538.8 542.59 546 L 542.59 546 L 542.59 546 Q 544.59 555.8 551.89 561.6 L 551.89 561.6 L 551.89 561.6 Q 559.19 567.4 570.19 567.4 L 570.19 567.4 L 570.19 567.4 Q 580.99 567.4 588.69 561.7 L 588.69 561.7 L 588.69 561.7 Q 596.39 556 597.99 547.4 L 597.99 547.4 L 598.19 546.6 L 598.19 546.6 Q 598.39 545.6 599.19 545.1 L 599.19 545.1 L 599.19 545.1 Q 599.99 544.6 600.99 544.8 L 600.99 544.8 L 606.39 545.4 L 606.39 545.4 Q 607.39 545.6 608.09 546.3 L 608.09 546.3 L 608.09 546.3 Q 608.79 547 608.59 548.2 L 608.59 548.2 L 607.79 551.4 L 607.79 551.4 Q 604.99 562.6 594.69 569.7 L 594.69 569.7 L 594.69 569.7 Q 584.39 576.8 570.19 576.8 L 570.19 576.8 L 570.19 576.8 Z  M 138.79 476.8 L 138.79 476.8 Q 138.79 475.8 139.49 475.1 L 139.49 475.1 L 139.49 475.1 Q 140.19 474.4 141.19 474.4 L 141.19 474.4 L 146.99 474.4 L 146.99 474.4 Q 147.99 474.4 148.69 475.1 L 148.69 475.1 L 148.69 475.1 Q 149.39 475.8 149.39 476.8 L 149.39 476.8 L 149.39 573 L 149.39 573 Q 149.39 595.6 135.89 605.8 L 135.89 605.8 L 135.89 605.8 Q 122.39 616 97.79 615 L 97.79 615 L 97.79 615 Q 95.39 614.8 95.39 612.4 L 95.39 612.4 L 95.59 607.4 L 95.59 607.4 Q 95.59 605 97.99 605.2 L 97.99 605.2 L 97.99 605.2 Q 119.19 605.8 128.99 597.9 L 128.99 597.9 L 128.99 597.9 Q 138.79 590 138.79 572.8 L 138.79 572.8 L 138.79 562.8 L 138.79 562.8 Q 138.79 562.2 138.49 562.1 L 138.49 562.1 L 138.49 562.1 Q 138.19 562 137.79 562.4 L 137.79 562.4 L 137.79 562.4 Q 128.79 576.2 110.39 576.2 L 110.39 576.2 L 110.39 576.2 Q 97.39 576.2 87.59 569.1 L 87.59 569.1 L 87.59 569.1 Q 77.79 562 74.59 549.6 L 74.59 549.6 L 74.59 549.6 Q 72.39 541.4 72.39 525 L 72.39 525 L 72.39 525 Q 72.39 507.4 74.79 499.2 L 74.79 499.2 L 74.79 499.2 Q 77.99 487.4 87.39 480.1 L 87.39 480.1 L 87.39 480.1 Q 96.79 472.8 109.99 472.8 L 109.99 472.8 L 109.99 472.8 Q 128.39 472.8 137.79 486.4 L 137.79 486.4 L 137.79 486.4 Q 137.99 486.8 138.39 486.6 L 138.39 486.6 L 138.39 486.6 Q 138.79 486.4 138.79 486 L 138.79 486 L 138.79 476.8 L 138.79 476.8 Z  M 137.79 545.8 L 137.79 545.8 Q 138.39 542.8 138.59 538.4 L 138.59 538.4 L 138.59 538.4 Q 138.79 534 138.79 524.8 L 138.79 524.8 L 138.79 524.8 Q 138.79 515.6 138.59 511.2 L 138.59 511.2 L 138.59 511.2 Q 138.39 506.8 137.79 503.4 L 137.79 503.4 L 137.79 503.4 Q 136.19 494.2 129.29 488.2 L 129.29 488.2 L 129.29 488.2 Q 122.39 482.2 111.99 482.2 L 111.99 482.2 L 111.99 482.2 Q 101.59 482.2 94.49 488.2 L 94.49 488.2 L 94.49 488.2 Q 87.39 494.2 84.79 503.4 L 84.79 503.4 L 84.79 503.4 Q 82.99 509.4 82.99 524.6 L 82.99 524.6 L 82.99 524.6 Q 82.99 539.4 84.79 545.8 L 84.79 545.8 L 84.79 545.8 Q 86.99 555 94.29 561 L 94.29 561 L 94.29 561 Q 101.59 567 111.99 567 L 111.99 567 L 111.99 567 Q 122.79 567 129.49 561 L 129.49 561 L 129.49 561 Q 136.19 555 137.79 545.8 L 137.79 545.8 L 137.79 545.8 Z  M 218.99 576.8 L 218.99 576.8 Q 204.79 576.8 194.89 569.4 L 194.89 569.4 L 194.89 569.4 Q 184.99 562 181.39 549.6 L 181.39 549.6 L 181.39 549.6 Q 178.99 541.6 178.99 524.6 L 178.99 524.6 L 178.99 524.6 Q 178.99 508.6 181.19 499.8 L 181.19 499.8 L 181.19 499.8 Q 184.79 487.4 194.79 480.1 L 194.79 480.1 L 194.79 480.1 Q 204.79 472.8 218.99 472.8 L 218.99 472.8 L 218.99 472.8 Q 232.99 472.8 243.09 480.2 L 243.09 480.2 L 243.09 480.2 Q 253.19 487.6 256.59 499.8 L 256.59 499.8 L 256.59 499.8 Q 258.79 507.8 258.79 524.6 L 258.79 524.6 L 258.79 524.6 Q 258.79 541.6 256.59 549.6 L 256.59 549.6 L 256.59 549.6 Q 253.19 562 243.09 569.4 L 243.09 569.4 L 243.09 569.4 Q 232.99 576.8 218.99 576.8 L 218.99 576.8 L 218.99 576.8 Z  M 218.99 567.4 L 218.99 567.4 Q 229.59 567.4 237.09 561.6 L 237.09 561.6 L 237.09 561.6 Q 244.59 555.8 246.79 546 L 246.79 546 L 246.79 546 Q 247.99 540.4 247.99 524.8 L 247.99 524.8 L 247.99 524.8 Q 247.99 508.8 246.79 503.6 L 246.79 503.6 L 246.79 503.6 Q 244.59 493.8 237.09 488 L 237.09 488 L 237.09 488 Q 229.59 482.2 218.79 482.2 L 218.79 482.2 L 218.79 482.2 Q 207.99 482.2 200.59 488 L 200.59 488 L 200.59 488 Q 193.19 493.8 190.99 503.6 L 190.99 503.6 L 190.99 503.6 Q 189.79 508.8 189.79 524.8 L 189.79 524.8 L 189.79 524.8 Q 189.79 540.8 190.99 546 L 190.99 546 L 190.99 546 Q 193.19 555.8 200.59 561.6 L 200.59 561.6 L 200.59 561.6 Q 207.99 567.4 218.99 567.4 L 218.99 567.4 L 218.99 567.4 Z " fill-rule="evenodd" fill="rgb(255,255,255)"/></g></svg>
